<?xml version="1.0" encoding="UTF-8"?>
<svg xmlns="http://www.w3.org/2000/svg" xmlns:xlink="http://www.w3.org/1999/xlink" width="256pt" height="256pt" viewBox="0 0 256 256" version="1.1">
<g id="surface1">
<path style=" stroke:none;fill-rule:nonzero;fill:rgb(21.568627%,78.431373%,21.568627%);fill-opacity:1;" d="M 128.128906 -0.164062 C 93.707031 -0.164062 62.078125 12.957031 37.683594 37.359375 C 13.289062 61.765625 0.171875 93.40625 0.171875 127.84375 C 0.171875 162.28125 13.289062 193.921875 37.683594 218.324219 C 58.167969 238.816406 83.773438 251.355469 112.746094 255.085938 C 124.125 256.554688 141.566406 255.808594 154 253.332031 C 198.761719 244.410156 237.003906 209.726562 250.40625 165.894531 C 264.46875 119.910156 252.410156 71.207031 218.578125 37.359375 C 194.183594 12.957031 162.554688 -0.164062 128.128906 -0.164062 Z M 126.964844 9.875 C 145.484375 9.707031 163.988281 13.902344 180.855469 22.355469 C 203.96875 33.941406 221.996094 51.972656 233.578125 75.097656 C 250.222656 108.339844 250.222656 147.347656 233.578125 180.585938 C 227.769531 192.1875 221.980469 200.339844 212.765625 209.917969 C 193.261719 230.1875 167.4375 242.542969 138.71875 245.351562 C 117.296875 247.445312 95.191406 243.246094 75.40625 233.332031 C 63.8125 227.519531 55.660156 221.730469 46.085938 212.511719 C 9.15625 176.945312 -0.355469 121.101562 22.683594 75.097656 C 36.53125 47.445312 60.320312 26.527344 89.457031 16.382812 C 101.617188 12.148438 114.296875 9.988281 126.964844 9.875 Z M 126.964844 9.875 "/>
<path style=" stroke:none;fill-rule:nonzero;fill:rgb(21.568627%,78.431373%,21.568627%);fill-opacity:1;" d="M 194.898438 115.6875 L 194.898438 93.566406 C 194.898438 93.566406 194.898438 93.5625 194.898438 93.558594 C 194.898438 93.363281 194.882812 93.167969 194.855469 92.976562 C 194.851562 92.9375 194.84375 92.902344 194.839844 92.867188 C 194.8125 92.703125 194.78125 92.539062 194.734375 92.378906 C 194.722656 92.347656 194.71875 92.320312 194.710938 92.292969 C 194.65625 92.113281 194.59375 91.9375 194.511719 91.761719 C 194.5 91.726562 194.480469 91.691406 194.460938 91.65625 C 194.421875 91.570312 194.382812 91.480469 194.335938 91.398438 C 194.3125 91.351562 194.28125 91.308594 194.25 91.261719 C 194.226562 91.214844 194.195312 91.171875 194.164062 91.125 C 194.070312 90.984375 193.976562 90.847656 193.871094 90.722656 C 193.859375 90.707031 193.847656 90.695312 193.835938 90.679688 C 193.710938 90.53125 193.582031 90.398438 193.445312 90.273438 C 193.410156 90.242188 193.382812 90.21875 193.347656 90.191406 C 193.230469 90.085938 193.105469 89.992188 192.976562 89.902344 C 192.941406 89.878906 192.914062 89.855469 192.878906 89.835938 C 192.726562 89.734375 192.566406 89.640625 192.398438 89.558594 C 192.382812 89.550781 192.371094 89.542969 192.359375 89.535156 L 162.820312 75.347656 C 161.089844 77.875 158.882812 80.164062 156.3125 82.148438 L 180.6875 93.855469 L 137.707031 117.6875 C 139.675781 104.121094 138.28125 91.527344 137.085938 84.453125 C 150.992188 80.585938 162.988281 69.234375 164.46875 54.75 C 145.175781 53.375 139.082031 57.382812 134.203125 75.476562 C 134.203125 39.292969 100.675781 37.527344 100.675781 37.527344 C 93.652344 61.917969 105.636719 77.347656 124.628906 84.035156 C 124.628906 84.035156 126.0625 84.386719 128.027344 84.660156 C 129.226562 91.265625 131.054688 105.429688 128.246094 119.960938 L 81.164062 93.851562 L 106.617188 81.625 C 104.117188 79.597656 102 77.265625 100.351562 74.710938 L 69.488281 89.535156 C 69.480469 89.535156 69.46875 89.546875 69.457031 89.550781 C 69.289062 89.632812 69.121094 89.730469 68.960938 89.832031 C 68.933594 89.851562 68.910156 89.871094 68.882812 89.886719 C 68.75 89.984375 68.621094 90.085938 68.496094 90.191406 C 68.46875 90.21875 68.4375 90.242188 68.410156 90.265625 C 68.273438 90.394531 68.136719 90.53125 68.015625 90.675781 C 68.003906 90.691406 67.992188 90.707031 67.980469 90.71875 C 67.875 90.847656 67.777344 90.980469 67.6875 91.121094 C 67.65625 91.167969 67.628906 91.214844 67.597656 91.261719 C 67.570312 91.308594 67.539062 91.351562 67.515625 91.398438 C 67.472656 91.480469 67.433594 91.5625 67.394531 91.644531 C 67.375 91.683594 67.355469 91.722656 67.335938 91.761719 C 67.261719 91.9375 67.195312 92.113281 67.144531 92.289062 C 67.136719 92.320312 67.125 92.351562 67.117188 92.382812 C 67.074219 92.542969 67.042969 92.699219 67.015625 92.859375 C 67.007812 92.898438 67.003906 92.9375 66.996094 92.980469 C 66.972656 93.167969 66.957031 93.363281 66.957031 93.554688 C 66.957031 93.558594 66.957031 93.5625 66.957031 93.566406 L 66.957031 115.691406 C 66.957031 115.699219 66.957031 115.707031 66.957031 115.710938 L 66.957031 167.074219 C 66.957031 168.699219 67.839844 170.195312 69.257812 170.984375 L 128.757812 203.980469 C 128.761719 203.980469 128.765625 203.984375 128.769531 203.984375 C 128.921875 204.070312 129.085938 204.148438 129.25 204.214844 C 129.28125 204.226562 129.3125 204.238281 129.34375 204.25 C 129.472656 204.296875 129.609375 204.339844 129.746094 204.378906 C 129.792969 204.394531 129.835938 204.40625 129.882812 204.414062 C 130.011719 204.445312 130.140625 204.46875 130.273438 204.488281 C 130.320312 204.496094 130.363281 204.503906 130.40625 204.511719 C 130.578125 204.53125 130.75 204.542969 130.925781 204.542969 C 131.105469 204.542969 131.277344 204.53125 131.449219 204.511719 C 131.492188 204.503906 131.535156 204.496094 131.582031 204.488281 C 131.710938 204.46875 131.84375 204.445312 131.972656 204.414062 C 132.015625 204.40625 132.0625 204.394531 132.109375 204.378906 C 132.246094 204.339844 132.378906 204.296875 132.511719 204.25 C 132.542969 204.238281 132.574219 204.226562 132.605469 204.214844 C 132.773438 204.148438 132.933594 204.070312 133.089844 203.984375 C 133.089844 203.984375 133.09375 203.980469 133.097656 203.980469 L 192.597656 170.984375 C 194.019531 170.195312 194.902344 168.699219 194.902344 167.074219 L 194.902344 115.722656 C 194.898438 115.710938 194.898438 115.699219 194.898438 115.6875 Z M 75.898438 101.160156 L 126.453125 129.195312 L 126.453125 141.144531 L 75.898438 113.109375 Z M 135.398438 129.195312 L 185.953125 101.15625 L 185.953125 113.109375 L 135.398438 141.144531 Z M 75.898438 123.335938 L 126.453125 151.371094 L 126.453125 192.476562 L 75.898438 164.441406 Z M 135.398438 192.476562 L 135.398438 151.371094 L 185.953125 123.335938 L 185.953125 164.441406 Z M 135.398438 192.476562 "/>
<path style=" stroke:none;fill-rule:nonzero;fill:rgb(21.568627%,78.431373%,21.568627%);fill-opacity:1;" d="M 126.625 105.058594 C 122.160156 87.261719 106.308594 91.457031 106.308594 91.457031 C 106.308594 91.457031 106.308594 106.109375 126.625 105.058594 Z M 126.625 105.058594 "/>
</g>
</svg>
